PathFileType	4	(X/Y/Z)	 D:\Google Drive\Share to the world\OpenSim\ScaleTool\TRC\Walk_Mkrs2.trc
DataRate	CameraRate	NumFrames	NumMarkers	Units	OrigDataRate	OrigDataStartFrame	OrigNumFrames
100	100	10	34	m	100	1	536
Frame#	time	C7			T10			CLAV			STRN			LSHO			LELB			LWRA			LWRB			LFIN			RSHO			RELB			RWRA			RWRB			RFIN			LASI			RASI			LPSI			RPSI			LTHI			LKNE			LTIB			LANK			LHEE			LTOE			RTHI			RKNE			RTIB			RANK			RHEE			RTOE			RPINKY			LPINKY			INRKNE			INLKNE			
		X1	Y1	Z1	X2	Y2	Z2	X3	Y3	Z3	X4	Y4	Z4	X5	Y5	Z5	X6	Y6	Z6	X7	Y7	Z7	X8	Y8	Z8	X9	Y9	Z9	X10	Y10	Z10	X11	Y11	Z11	X12	Y12	Z12	X13	Y13	Z13	X14	Y14	Z14	X15	Y15	Z15	X16	Y16	Z16	X17	Y17	Z17	X18	Y18	Z18	X19	Y19	Z19	X20	Y20	Z20	X21	Y21	Z21	X22	Y22	Z22	X23	Y23	Z23	X24	Y24	Z24	X25	Y25	Z25	X26	Y26	Z26	X27	Y27	Z27	X28	Y28	Z28	X29	Y29	Z29	X30	Y30	Z30	X31	Y31	Z31	X32	Y32	Z32	X33	Y33	Z33	X34	Y34	Z34	

1	0.0000	-2.218830	1.501260	0.225790	-2.250430	1.252140	0.225160	-2.073100	1.402960	0.239550	-2.039400	1.251540	0.238270	-2.144110	1.467010	0.053450	-2.137000	1.151650	-0.024090	-2.045030	0.914780	0.023870	-2.094170	0.906310	-0.021880	-2.045830	0.838930	-0.021600	-2.166110	1.471210	0.404970	-2.186960	1.154600	0.508660	-2.070310	0.932600	0.476630	-2.111970	0.924910	0.520010	-2.071750	0.863640	0.518990	-2.050550	0.978890	0.118500	-2.071290	0.982990	0.384960	-2.215190	1.086270	0.185920	-2.218740	1.087240	0.272750	-2.129550	0.680790	0.069190	-2.169990	0.494610	0.086470	-2.199970	0.296670	0.069710	-2.187960	0.089470	0.109810	-2.233930	0.107250	0.147490	-2.038540	0.051250	0.166330	-2.148800	0.683300	0.408420	-2.162450	0.493890	0.386700	-2.184060	0.317370	0.397070	-2.184650	0.088940	0.349930	-2.227830	0.096850	0.300210	-2.024940	0.050930	0.318690	-2.088090	0.057080	0.398800	-2.082860	0.041420	0.080410	-2.159520	0.492290	0.284290	-2.186660	0.483770	0.188890	
2	0.0100	-2.218830	1.501250	0.225740	-2.250410	1.252130	0.225110	-2.073120	1.402930	0.239490	-2.039410	1.251510	0.238250	-2.144120	1.466980	0.053400	-2.136990	1.151610	-0.024100	-2.045030	0.914740	0.023850	-2.094170	0.906270	-0.021890	-2.045830	0.838880	-0.021610	-2.166140	1.471180	0.404920	-2.186950	1.154560	0.508570	-2.070250	0.932600	0.476520	-2.111910	0.924870	0.519890	-2.071690	0.863630	0.518880	-2.050530	0.978870	0.118500	-2.071300	0.982990	0.384940	-2.215170	1.086260	0.185870	-2.218730	1.087250	0.272700	-2.129510	0.680770	0.069170	-2.169990	0.494590	0.086450	-2.199960	0.296650	0.069680	-2.187950	0.089460	0.109810	-2.233930	0.107230	0.147490	-2.038540	0.051260	0.166330	-2.148850	0.683310	0.408400	-2.162490	0.493900	0.386690	-2.184090	0.317380	0.397060	-2.184660	0.088940	0.349920	-2.227840	0.096840	0.300210	-2.024950	0.050920	0.318680	-2.088100	0.057080	0.398790	-2.082870	0.041420	0.080400	-2.159550	0.492300	0.284280	-2.186690	0.483770	0.188850	
3	0.0200	-2.218830	1.501240	0.225680	-2.250380	1.252120	0.225060	-2.073150	1.402890	0.239440	-2.039420	1.251470	0.238230	-2.144130	1.466940	0.053350	-2.136990	1.151570	-0.024120	-2.045020	0.914710	0.023840	-2.094170	0.906240	-0.021890	-2.045830	0.838840	-0.021610	-2.166160	1.471140	0.404860	-2.186950	1.154520	0.508490	-2.070190	0.932610	0.476410	-2.111850	0.924840	0.519770	-2.071620	0.863610	0.518760	-2.050510	0.978850	0.118500	-2.071310	0.982990	0.384930	-2.215150	1.086240	0.185820	-2.218720	1.087250	0.272640	-2.129470	0.680760	0.069160	-2.169990	0.494580	0.086420	-2.199950	0.296640	0.069650	-2.187950	0.089450	0.109810	-2.233920	0.107220	0.147490	-2.038550	0.051260	0.166320	-2.148900	0.683310	0.408380	-2.162530	0.493900	0.386670	-2.184120	0.317380	0.397040	-2.184670	0.088930	0.349920	-2.227860	0.096820	0.300210	-2.024960	0.050920	0.318680	-2.088110	0.057080	0.398790	-2.082870	0.041420	0.080390	-2.159580	0.492300	0.284270	-2.186720	0.483770	0.188820	
4	0.0300	-2.218830	1.501230	0.225620	-2.250350	1.252110	0.225010	-2.073190	1.402860	0.239390	-2.039430	1.251440	0.238200	-2.144140	1.466910	0.053290	-2.137000	1.151530	-0.024130	-2.045020	0.914670	0.023820	-2.094170	0.906200	-0.021900	-2.045830	0.838800	-0.021620	-2.166180	1.471110	0.404810	-2.186940	1.154480	0.508400	-2.070130	0.932620	0.476300	-2.111790	0.924800	0.519650	-2.071550	0.863600	0.518640	-2.050490	0.978830	0.118490	-2.071320	0.983000	0.384920	-2.215140	1.086220	0.185760	-2.218710	1.087250	0.272580	-2.129440	0.680750	0.069140	-2.169980	0.494570	0.086400	-2.199940	0.296630	0.069630	-2.187940	0.089440	0.109810	-2.233920	0.107210	0.147490	-2.038550	0.051260	0.166320	-2.148950	0.683310	0.408360	-2.162570	0.493910	0.386650	-2.184150	0.317380	0.397030	-2.184680	0.088920	0.349920	-2.227870	0.096810	0.300200	-2.024970	0.050920	0.318680	-2.088120	0.057080	0.398790	-2.082870	0.041420	0.080380	-2.159610	0.492300	0.284250	-2.186750	0.483770	0.188790	
5	0.0400	-2.218840	1.501220	0.225570	-2.250330	1.252100	0.224960	-2.073230	1.402820	0.239340	-2.039440	1.251410	0.238180	-2.144160	1.466880	0.053250	-2.137010	1.151500	-0.024150	-2.045030	0.914640	0.023800	-2.094180	0.906170	-0.021910	-2.045830	0.838760	-0.021630	-2.166210	1.471080	0.404760	-2.186930	1.154450	0.508320	-2.070060	0.932630	0.476180	-2.111730	0.924770	0.519530	-2.071480	0.863590	0.518520	-2.050470	0.978810	0.118490	-2.071330	0.983000	0.384910	-2.215130	1.086210	0.185710	-2.218700	1.087250	0.272530	-2.129410	0.680740	0.069120	-2.169980	0.494560	0.086370	-2.199940	0.296620	0.069610	-2.187940	0.089440	0.109800	-2.233920	0.107200	0.147480	-2.038550	0.051270	0.166320	-2.149000	0.683320	0.408340	-2.162610	0.493910	0.386630	-2.184180	0.317390	0.397010	-2.184690	0.088910	0.349920	-2.227880	0.096800	0.300200	-2.024980	0.050920	0.318680	-2.088130	0.057080	0.398790	-2.082870	0.041420	0.080370	-2.159640	0.492300	0.284240	-2.186770	0.483760	0.188760	
6	0.0500	-2.218850	1.501210	0.225520	-2.250310	1.252090	0.224920	-2.073280	1.402790	0.239300	-2.039460	1.251380	0.238150	-2.144190	1.466850	0.053200	-2.137020	1.151460	-0.024170	-2.045030	0.914610	0.023780	-2.094190	0.906130	-0.021910	-2.045840	0.838730	-0.021640	-2.166230	1.471050	0.404710	-2.186920	1.154410	0.508230	-2.069990	0.932630	0.476060	-2.111670	0.924750	0.519410	-2.071400	0.863580	0.518390	-2.050450	0.978800	0.118480	-2.071350	0.982990	0.384900	-2.215130	1.086200	0.185660	-2.218690	1.087250	0.272480	-2.129390	0.680730	0.069100	-2.169980	0.494550	0.086350	-2.199930	0.296610	0.069580	-2.187940	0.089430	0.109800	-2.233920	0.107190	0.147480	-2.038550	0.051270	0.166320	-2.149040	0.683320	0.408320	-2.162650	0.493910	0.386620	-2.184210	0.317390	0.397000	-2.184700	0.088910	0.349910	-2.227880	0.096790	0.300200	-2.024980	0.050920	0.318680	-2.088130	0.057080	0.398790	-2.082880	0.041420	0.080370	-2.159660	0.492300	0.284220	-2.186790	0.483760	0.188730	
7	0.0600	-2.218860	1.501200	0.225470	-2.250300	1.252080	0.224880	-2.073330	1.402760	0.239250	-2.039480	1.251360	0.238130	-2.144220	1.466820	0.053150	-2.137050	1.151430	-0.024190	-2.045050	0.914580	0.023760	-2.094210	0.906100	-0.021920	-2.045850	0.838700	-0.021640	-2.166260	1.471030	0.404660	-2.186900	1.154380	0.508150	-2.069910	0.932640	0.475940	-2.111600	0.924720	0.519300	-2.071310	0.863560	0.518250	-2.050430	0.978800	0.118470	-2.071370	0.982990	0.384890	-2.215130	1.086190	0.185620	-2.218690	1.087250	0.272430	-2.129380	0.680730	0.069080	-2.169980	0.494540	0.086330	-2.199930	0.296610	0.069560	-2.187940	0.089430	0.109800	-2.233920	0.107180	0.147470	-2.038550	0.051270	0.166320	-2.149090	0.683320	0.408300	-2.162690	0.493910	0.386600	-2.184230	0.317390	0.396980	-2.184700	0.088900	0.349910	-2.227890	0.096780	0.300190	-2.024990	0.050920	0.318680	-2.088140	0.057090	0.398790	-2.082880	0.041420	0.080370	-2.159680	0.492300	0.284210	-2.186810	0.483770	0.188710	
8	0.0700	-2.218870	1.501190	0.225430	-2.250290	1.252070	0.224840	-2.073390	1.402720	0.239210	-2.039490	1.251340	0.238100	-2.144260	1.466790	0.053110	-2.137080	1.151400	-0.024220	-2.045060	0.914550	0.023740	-2.094240	0.906070	-0.021920	-2.045870	0.838670	-0.021650	-2.166290	1.471010	0.404620	-2.186890	1.154350	0.508060	-2.069820	0.932660	0.475820	-2.111540	0.924710	0.519180	-2.071220	0.863550	0.518110	-2.050410	0.978800	0.118460	-2.071390	0.982990	0.384870	-2.215130	1.086190	0.185580	-2.218690	1.087240	0.272380	-2.129370	0.680720	0.069050	-2.169980	0.494540	0.086310	-2.199930	0.296600	0.069540	-2.187930	0.089420	0.109790	-2.233920	0.107180	0.147470	-2.038550	0.051260	0.166320	-2.149130	0.683320	0.408280	-2.162720	0.493920	0.386590	-2.184260	0.317390	0.396960	-2.184700	0.088900	0.349910	-2.227890	0.096770	0.300190	-2.024990	0.050920	0.318680	-2.088130	0.057090	0.398780	-2.082880	0.041420	0.080360	-2.159700	0.492300	0.284190	-2.186820	0.483770	0.188690	
9	0.0800	-2.218880	1.501180	0.225390	-2.250280	1.252060	0.224800	-2.073450	1.402690	0.239180	-2.039510	1.251320	0.238070	-2.144300	1.466770	0.053070	-2.137110	1.151370	-0.024240	-2.045090	0.914530	0.023720	-2.094270	0.906050	-0.021930	-2.045900	0.838640	-0.021660	-2.166320	1.470990	0.404580	-2.186880	1.154320	0.507980	-2.069730	0.932670	0.475690	-2.111480	0.924690	0.519060	-2.071120	0.863540	0.517970	-2.050400	0.978790	0.118440	-2.071410	0.982990	0.384850	-2.215140	1.086190	0.185540	-2.218690	1.087240	0.272330	-2.129370	0.680720	0.069030	-2.169990	0.494540	0.086290	-2.199930	0.296600	0.069520	-2.187930	0.089420	0.109790	-2.233920	0.107170	0.147460	-2.038550	0.051260	0.166320	-2.149170	0.683330	0.408270	-2.162750	0.493920	0.386570	-2.184280	0.317390	0.396950	-2.184700	0.088900	0.349900	-2.227900	0.096770	0.300190	-2.024990	0.050920	0.318680	-2.088130	0.057090	0.398770	-2.082880	0.041420	0.080360	-2.159720	0.492300	0.284170	-2.186830	0.483770	0.188670	
10	0.0900	-2.218900	1.501170	0.225360	-2.250280	1.252060	0.224760	-2.073510	1.402660	0.239140	-2.039540	1.251300	0.238040	-2.144350	1.466750	0.053030	-2.137160	1.151350	-0.024260	-2.045120	0.914510	0.023700	-2.094300	0.906020	-0.021940	-2.045930	0.838620	-0.021670	-2.166360	1.470970	0.404550	-2.186870	1.154290	0.507900	-2.069630	0.932690	0.475570	-2.111410	0.924680	0.518940	-2.071020	0.863530	0.517830	-2.050400	0.978790	0.118410	-2.071440	0.982990	0.384830	-2.215160	1.086190	0.185500	-2.218690	1.087240	0.272290	-2.129370	0.680710	0.069010	-2.169990	0.494540	0.086270	-2.199930	0.296590	0.069510	-2.187930	0.089410	0.109790	-2.233920	0.107170	0.147460	-2.038550	0.051260	0.166320	-2.149200	0.683330	0.408250	-2.162780	0.493920	0.386550	-2.184290	0.317390	0.396940	-2.184690	0.088900	0.349900	-2.227900	0.096770	0.300190	-2.025000	0.050920	0.318680	-2.088110	0.057090	0.398760	-2.082880	0.041420	0.080360	-2.159740	0.492300	0.284150	-2.186840	0.483770	0.188650	
